<svg width="923" height="923" viewBox="0 0 923 923" fill="none" xmlns="http://www.w3.org/2000/svg">
<circle cx="461.5" cy="461.5" r="461.5" fill="#121212"/>
<g filter="url(#filter0_d_3465_9605)">
<path d="M686 143L418.781 432.5H318.113L297.031 476H238L383.995 206.5L466.744 350L686 143Z" fill="#E0E0E0" fill-opacity="0.85"/>
<path d="M505.218 368L251.703 645L445.661 461.5V598.5L505.218 554V480H601.67L651.741 428.5H505.218V368Z" fill="#E0E0E0" fill-opacity="0.85"/>
<path d="M622.754 356H515.234L562.143 307H672.298L622.754 356Z" fill="#E0E0E0" fill-opacity="0.85"/>
<path d="M386.631 309L346.574 387.5H426.687L386.631 309Z" fill="#121212"/>
</g>
<path d="M252.445 706L249.652 698.07H238.734L235.941 706H231L241.625 677.328H246.82L257.426 706H252.445ZM248.441 694.047L245.727 686.234C245.622 685.896 245.473 685.421 245.277 684.809C245.082 684.184 244.887 683.552 244.691 682.914C244.496 682.263 244.333 681.716 244.203 681.273C244.073 681.807 243.91 682.406 243.715 683.07C243.533 683.721 243.35 684.333 243.168 684.906C242.999 685.479 242.868 685.922 242.777 686.234L240.043 694.047H248.441ZM283.91 706L275.688 682.152H275.512C275.551 682.686 275.596 683.415 275.648 684.34C275.701 685.264 275.746 686.254 275.785 687.309C275.824 688.363 275.844 689.372 275.844 690.336V706H271.586V677.445H278.168L286.078 700.238H286.195L294.379 677.445H300.941V706H296.469V690.102C296.469 689.229 296.482 688.285 296.508 687.27C296.547 686.254 296.586 685.29 296.625 684.379C296.677 683.467 296.716 682.738 296.742 682.191H296.586L288.051 706H283.91ZM336.547 706L333.754 698.07H322.836L320.043 706H315.102L325.727 677.328H330.922L341.527 706H336.547ZM332.543 694.047L329.828 686.234C329.724 685.896 329.574 685.421 329.379 684.809C329.184 684.184 328.988 683.552 328.793 682.914C328.598 682.263 328.435 681.716 328.305 681.273C328.174 681.807 328.012 682.406 327.816 683.07C327.634 683.721 327.452 684.333 327.27 684.906C327.1 685.479 326.97 685.922 326.879 686.234L324.145 694.047H332.543ZM379.516 706H373.754L359.77 683.207H359.594C359.646 683.975 359.691 684.789 359.73 685.648C359.783 686.508 359.822 687.393 359.848 688.305C359.887 689.216 359.919 690.141 359.945 691.078V706H355.688V677.445H361.41L375.375 700.082H375.512C375.486 699.418 375.453 698.656 375.414 697.797C375.375 696.938 375.336 696.052 375.297 695.141C375.271 694.216 375.251 693.324 375.238 692.465V677.445H379.516V706ZM412.445 706H407.797V677.445H423.93V681.391H412.445V690.297H423.188V694.223H412.445V706ZM447.543 677.445C450.004 677.445 452.035 677.745 453.637 678.344C455.251 678.943 456.449 679.854 457.23 681.078C458.025 682.302 458.422 683.858 458.422 685.746C458.422 687.152 458.161 688.35 457.641 689.34C457.12 690.329 456.436 691.15 455.59 691.801C454.743 692.452 453.839 692.973 452.875 693.363L460.98 706H455.688L448.793 694.555H444.203V706H439.516V677.445H447.543ZM447.23 681.352H444.203V690.688H447.445C449.62 690.688 451.195 690.284 452.172 689.477C453.161 688.669 453.656 687.478 453.656 685.902C453.656 684.249 453.129 683.077 452.074 682.387C451.033 681.697 449.418 681.352 447.23 681.352ZM500.805 691.684C500.805 693.884 500.525 695.889 499.965 697.699C499.418 699.496 498.591 701.046 497.484 702.348C496.378 703.637 494.991 704.633 493.324 705.336C491.658 706.039 489.704 706.391 487.465 706.391C485.186 706.391 483.207 706.039 481.527 705.336C479.861 704.633 478.474 703.63 477.367 702.328C476.273 701.026 475.453 699.47 474.906 697.66C474.359 695.85 474.086 693.845 474.086 691.645C474.086 688.702 474.568 686.137 475.531 683.949C476.508 681.749 477.986 680.043 479.965 678.832C481.957 677.608 484.47 676.996 487.504 676.996C490.473 676.996 492.94 677.602 494.906 678.812C496.872 680.023 498.344 681.729 499.32 683.93C500.31 686.117 500.805 688.702 500.805 691.684ZM479.008 691.684C479.008 693.884 479.307 695.792 479.906 697.406C480.505 699.008 481.423 700.245 482.66 701.117C483.91 701.977 485.512 702.406 487.465 702.406C489.431 702.406 491.033 701.977 492.27 701.117C493.507 700.245 494.418 699.008 495.004 697.406C495.59 695.792 495.883 693.884 495.883 691.684C495.883 688.337 495.212 685.72 493.871 683.832C492.543 681.931 490.421 680.98 487.504 680.98C485.551 680.98 483.943 681.41 482.68 682.27C481.43 683.129 480.505 684.359 479.906 685.961C479.307 687.549 479.008 689.457 479.008 691.684ZM541.156 706H535.395L521.41 683.207H521.234C521.286 683.975 521.332 684.789 521.371 685.648C521.423 686.508 521.462 687.393 521.488 688.305C521.527 689.216 521.56 690.141 521.586 691.078V706H517.328V677.445H523.051L537.016 700.082H537.152C537.126 699.418 537.094 698.656 537.055 697.797C537.016 696.938 536.977 696.052 536.938 695.141C536.911 694.216 536.892 693.324 536.879 692.465V677.445H541.156V706ZM568.949 706H564.242V681.43H555.883V677.445H577.289V681.43H568.949V706ZM608.227 706H592.055V677.445H608.227V681.391H596.742V689.145H607.504V693.07H596.742V702.035H608.227V706ZM648.617 706H642.855L628.871 683.207H628.695C628.747 683.975 628.793 684.789 628.832 685.648C628.884 686.508 628.923 687.393 628.949 688.305C628.988 689.216 629.021 690.141 629.047 691.078V706H624.789V677.445H630.512L644.477 700.082H644.613C644.587 699.418 644.555 698.656 644.516 697.797C644.477 696.938 644.438 696.052 644.398 695.141C644.372 694.216 644.353 693.324 644.34 692.465V677.445H648.617V706ZM689.691 691.449C689.691 694.665 689.092 697.354 687.895 699.516C686.697 701.664 684.958 703.285 682.68 704.379C680.401 705.46 677.654 706 674.438 706H666.508V677.445H675.297C678.253 677.445 680.805 677.979 682.953 679.047C685.102 680.102 686.762 681.671 687.934 683.754C689.105 685.824 689.691 688.389 689.691 691.449ZM684.809 691.586C684.809 689.242 684.438 687.315 683.695 685.805C682.966 684.294 681.885 683.174 680.453 682.445C679.034 681.703 677.283 681.332 675.199 681.332H671.195V702.074H674.516C677.966 702.074 680.544 701.195 682.25 699.438C683.956 697.68 684.809 695.062 684.809 691.586Z" fill="#E0E0E0" fill-opacity="0.85"/>
<defs>
<filter id="filter0_d_3465_9605" x="234" y="143" width="456" height="510" filterUnits="userSpaceOnUse" color-interpolation-filters="sRGB">
<feFlood flood-opacity="0" result="BackgroundImageFix"/>
<feColorMatrix in="SourceAlpha" type="matrix" values="0 0 0 0 0 0 0 0 0 0 0 0 0 0 0 0 0 0 127 0" result="hardAlpha"/>
<feOffset dy="4"/>
<feGaussianBlur stdDeviation="2"/>
<feComposite in2="hardAlpha" operator="out"/>
<feColorMatrix type="matrix" values="0 0 0 0 0 0 0 0 0 0 0 0 0 0 0 0 0 0 0.08 0"/>
<feBlend mode="normal" in2="BackgroundImageFix" result="effect1_dropShadow_3465_9605"/>
<feBlend mode="normal" in="SourceGraphic" in2="effect1_dropShadow_3465_9605" result="shape"/>
</filter>
</defs>
</svg>
